Coordinates
version=1
nRows=17
nColumns=38
inDegrees=no

Units are S.I. units (second, meters, Newtons, ...)
If the header above contains a line with 'inDegrees', this indicates whether rotational values are in degrees (yes) or radians (no).

endheader
time	pelvis_tilt	pelvis_list	pelvis_rotation	pelvis_tx	pelvis_ty	pelvis_tz	hip_flexion_r	hip_adduction_r	hip_rotation_r	knee_angle_r	ankle_angle_r	subtalar_angle_r	mtp_angle_r	hip_flexion_l	hip_adduction_l	hip_rotation_l	knee_angle_l	ankle_angle_l	subtalar_angle_l	mtp_angle_l	lumbar_extension	lumbar_bending	lumbar_rotation	arm_flex_r	arm_add_r	arm_rot_r	elbow_flex_r	pro_sup_r	wrist_flex_r	wrist_dev_r	arm_flex_l	arm_add_l	arm_rot_l	elbow_flex_l	pro_sup_l	wrist_flex_l	wrist_dev_l
4.13	-3.03321	1.34416	-1.80405	0.703486	1.81274	0.918002	-0.364801	-0.183353	-0.191543	0.715556	0.0086103	0	0	0.16392	0.0113787	-0.371734	0.267919	-0.17984	0	0	-0.298121	-0.0924776	0.120887	0.607662	-0.356802	0.314582	1.31588	1.5708	0	0	0.53643	-0.242439	0.0743426	1.45376	0.92515	0	0
4.14	-3.0238	1.34583	-1.81294	0.701216	1.82031	0.919074	-0.333037	-0.195777	-0.184512	0.768451	-0.0304405	0	0	0.155164	0.0196098	-0.370465	0.262561	-0.178878	0	0	-0.293928	-0.0923131	0.120022	0.607033	-0.361085	0.317862	1.309	1.5708	0	0	0.534112	-0.238206	0.0780528	1.44973	0.924091	0	0
4.15	-3.0195	1.34768	-1.81799	0.699092	1.82732	0.920099	-0.299086	-0.206147	-0.17357	0.821689	-0.0683324	0	0	0.147623	0.0259046	-0.369126	0.258538	-0.178993	0	0	-0.290928	-0.0911204	0.120362	0.608576	-0.365796	0.322176	1.30176	1.5708	0	0	0.533816	-0.234122	0.0818909	1.44459	0.923032	0	0
4.16	-3.01472	1.35085	-1.82314	0.697131	1.83414	0.920983	-0.259384	-0.217398	-0.176507	0.880267	-0.110001	0	0	0.142759	0.0309343	-0.367571	0.256344	-0.176641	0	0	-0.286792	-0.0900021	0.120392	0.61054	-0.370171	0.327277	1.29408	1.5708	0	0	0.534683	-0.230706	0.0855938	1.43857	0.922276	0	0
4.17	-3.01329	1.35425	-1.82789	0.695495	1.84031	0.921774	-0.223859	-0.222351	-0.1473	0.927959	-0.142451	0	0	0.139121	0.0344158	-0.365231	0.255381	-0.175473	0	0	-0.283712	-0.088903	0.12282	0.614422	-0.374078	0.33241	1.28631	1.5708	0	0	0.537324	-0.227709	0.0888243	1.43218	0.922124	0	0
4.18	-3.00994	1.35579	-1.83314	0.693835	1.84659	0.922605	-0.18975	-0.229438	-0.135805	0.975393	-0.177818	0	0	0.133992	0.0386358	-0.36243	0.25545	-0.172165	0	0	-0.282017	-0.088715	0.123648	0.617676	-0.377184	0.336645	1.27856	1.5708	0	0	0.540255	-0.226086	0.0944699	1.42588	0.921792	0	0
4.19	-3.00346	1.35581	-1.83929	0.692014	1.85303	0.923513	-0.157192	-0.240163	-0.142968	1.02156	-0.208899	0	0	0.127503	0.0441029	-0.358741	0.255764	-0.168249	0	0	-0.2813	-0.0892444	0.12221	0.619657	-0.379719	0.340191	1.27115	1.5708	0	0	0.542784	-0.225576	0.102315	1.41978	0.920706	0	0
4.2	-2.9998	1.35775	-1.84316	0.69034	1.85909	0.924299	-0.12591	-0.246212	-0.135354	1.05984	-0.217227	0	0	0.123996	0.0477978	-0.354975	0.257564	-0.164276	0	0	-0.279474	-0.0889737	0.121184	0.621542	-0.381464	0.34288	1.26342	1.5708	0	0	0.545259	-0.225643	0.109861	1.41393	0.919078	0	0
4.21	-2.86423	1.37983	-1.96541	0.686386	1.86721	0.92149	-0.0683255	-0.284035	-0.151716	1.10856	-0.19746	0	0	0.150024	0.0773133	-0.333222	0.258308	-0.161655	0	0	-0.243035	-0.104684	0.106128	0.611126	-0.380458	0.340447	1.25739	1.5708	0	0	0.53891	-0.227994	0.118134	1.41041	0.916675	0	0
4.22	-3.00661	1.35427	-1.83021	0.6872	1.87149	0.926552	-0.0802859	-0.25457	-0.13231	1.12553	-0.189392	0	0	0.105852	0.0544368	-0.342066	0.257864	-0.154235	0	0	-0.284442	-0.0875231	0.112157	0.622709	-0.381355	0.343206	1.25118	1.5708	0	0	0.549479	-0.229309	0.124074	1.40735	0.915447	0	0
4.23	-2.8825	1.37405	-1.94178	0.683535	1.87889	0.923884	-0.0257039	-0.290158	-0.14445	1.17009	-0.160587	0	0	0.128419	0.0826367	-0.323133	0.257795	-0.148976	0	0	-0.252289	-0.103146	0.0969769	0.614683	-0.378955	0.340609	1.24516	1.5708	0	0	0.544243	-0.232445	0.130786	1.40468	0.912306	0	0
4.24	-2.86898	1.3809	-1.9608	0.681944	1.88326	0.923925	0.0128229	-0.297537	-0.136914	1.19869	-0.141527	0	0	0.132398	0.0852434	-0.326044	0.259933	-0.141018	0	0	-0.247751	-0.102688	0.0999124	0.619402	-0.379579	0.341857	1.2397	1.5708	0	0	0.546176	-0.23116	0.132306	1.40087	0.909	0	0
4.25	-2.90158	1.37372	-1.92147	0.680942	1.88956	0.925695	0.0229955	-0.292586	-0.13488	1.21752	-0.129696	0	0	0.113022	0.0843405	-0.322104	0.257112	-0.13271	0	0	-0.257651	-0.0993914	0.0918559	0.619108	-0.376007	0.339054	1.23502	1.5708	0	0	0.547715	-0.2348	0.13754	1.40048	0.907079	0	0
4.26	-3.02253	1.35117	-1.80642	0.681758	1.89384	0.930263	0.010256	-0.264653	-0.124868	1.2193	-0.123528	0	0	0.0716762	0.0640094	-0.33228	0.252298	-0.127464	0	0	-0.293001	-0.0838415	0.0963358	0.628581	-0.373552	0.340055	1.22846	1.5708	0	0	0.554653	-0.235948	0.138748	1.399	0.906309	0	0
4.27	-2.92965	1.36848	-1.88718	0.678128	1.90036	0.92825	0.0553371	-0.294151	-0.137926	1.24422	-0.103568	0	0	0.0866775	0.0882334	-0.311151	0.246138	-0.127924	0	0	-0.267338	-0.0942905	0.0806714	0.624258	-0.369974	0.33931	1.2216	1.5708	0	0	0.548614	-0.236484	0.138487	1.39708	0.903398	0	0
4.28	-3.0268	1.35683	-1.80553	0.679022	1.90271	0.931574	0.0629835	-0.270427	-0.123234	1.24593	-0.0953358	0	0	0.0619606	0.0692591	-0.327051	0.242758	-0.123998	0	0	-0.292526	-0.0808598	0.0941795	0.637769	-0.368935	0.341871	1.21443	1.5708	0	0	0.556427	-0.233643	0.135931	1.39399	0.902861	0	0
4.29	-2.95785	1.36584	-1.85452	0.675528	1.91014	0.930676	0.0898815	-0.293178	-0.141027	1.26095	-0.0791115	0	0	0.0642636	0.08959	-0.3026	0.235446	-0.122776	0	0	-0.275168	-0.0880804	0.0721013	0.631225	-0.363823	0.339305	1.20754	1.5708	0	0	0.550377	-0.235139	0.137655	1.39292	0.900045	0	0
